<?xml version="1.0" standalone="no"?>
<!DOCTYPE svg PUBLIC "-//W3C//DTD SVG 1.1//EN" "http://www.w3.org/Graphics/SVG/1.1/DTD/svg11.dtd">
<svg xmlns="http://www.w3.org/2000/svg" xmlns:bx="https://boxy-svg.com" viewBox="0 0 400 200" width="400" height="200"><defs><linearGradient id="gradient-1" x1="0%" y1="0%" x2="100%" y2="0%"><stop offset="0" style="stop-color:#FF6B6B"/><stop offset="1" style="stop-color:#FF8E53"/></linearGradient><linearGradient id="gradient-2" x1="0%" y1="0%" x2="100%" y2="100%"><stop offset="0" style="stop-color:#2B5876"/><stop offset="1" style="stop-color:#4E4376"/></linearGradient><bx:export><bx:file format="svg" excluded="true"/><bx:file format="svg" path="Untitled 4.svg" excluded="true"/><bx:file format="svg" path="Untitled 3.svg"/><bx:file format="svg" href="#object-0" path="Untitled 2.svg"/></bx:export></defs><g transform="matrix(1, 0, 0, 1, 1.401008, 5.601273)"><g transform="matrix(1.744949, 0, 0, 1.744949, 28.436329, -68.320229)" id="object-0"><path d="M90,90 L200,90" stroke="url(#gradient-1)" stroke-width="12" stroke-linecap="round"/><circle cx="160" cy="90" r="25" fill="none" stroke="url(#gradient-2)" stroke-width="3"/><circle cx="180" cy="90" r="15" fill="none" stroke="url(#gradient-2)" stroke-width="3"/></g><g transform="matrix(1, 0, 0, 1, -1, 0)"><path d="M 32.04 122.033 L 51.063 122.033 C 51.063 123.989 50.982 125.765 50.818 127.363 C 50.656 128.96 50.33 130.443 49.84 131.813 C 49.156 133.736 48.227 135.439 47.053 136.923 C 45.879 138.406 44.502 139.645 42.921 140.64 C 41.34 141.634 39.604 142.392 37.713 142.914 C 35.823 143.435 33.834 143.696 31.747 143.696 C 28.879 143.696 26.263 143.223 23.899 142.278 C 21.535 141.332 19.506 140.004 17.811 138.292 C 16.116 136.58 14.796 134.527 13.85 132.131 C 12.905 129.735 12.432 127.086 12.432 124.185 C 12.432 121.316 12.897 118.683 13.825 116.287 C 14.755 113.891 16.075 111.845 17.786 110.15 C 19.498 108.455 21.56 107.135 23.972 106.19 C 26.385 105.244 29.074 104.771 32.04 104.771 C 35.888 104.771 39.262 105.602 42.163 107.265 C 45.065 108.927 47.363 111.503 49.058 114.992 L 39.962 118.757 C 39.115 116.735 38.015 115.285 36.661 114.405 C 35.309 113.524 33.768 113.084 32.04 113.084 C 30.606 113.084 29.302 113.353 28.128 113.891 C 26.955 114.429 25.953 115.195 25.121 116.19 C 24.29 117.184 23.638 118.382 23.165 119.784 C 22.693 121.185 22.456 122.75 22.456 124.478 C 22.456 126.042 22.66 127.493 23.067 128.83 C 23.475 130.166 24.087 131.324 24.901 132.302 C 25.717 133.28 26.727 134.038 27.933 134.576 C 29.139 135.114 30.541 135.383 32.138 135.383 C 33.084 135.383 33.997 135.277 34.877 135.065 C 35.757 134.853 36.548 134.51 37.248 134.038 C 37.95 133.565 38.528 132.954 38.984 132.204 C 39.441 131.454 39.751 130.542 39.913 129.466 L 32.04 129.466 L 32.04 122.033 Z M 70.198 105.798 L 70.198 134.552 L 81.689 134.552 L 81.689 142.669 L 60.613 142.669 L 60.613 105.798 L 70.198 105.798 Z M 97.744 124.234 C 97.744 125.7 98.022 127.053 98.576 128.292 C 99.13 129.531 99.88 130.607 100.825 131.52 C 101.771 132.432 102.871 133.141 104.126 133.647 C 105.381 134.152 106.709 134.405 108.111 134.405 C 109.513 134.405 110.842 134.152 112.097 133.647 C 113.352 133.141 114.46 132.432 115.422 131.52 C 116.384 130.607 117.142 129.531 117.696 128.292 C 118.25 127.053 118.527 125.7 118.527 124.234 C 118.527 122.766 118.25 121.413 117.696 120.175 C 117.142 118.936 116.384 117.86 115.422 116.948 C 114.46 116.034 113.352 115.325 112.097 114.82 C 110.842 114.314 109.513 114.062 108.111 114.062 C 106.709 114.062 105.381 114.314 104.126 114.82 C 102.871 115.325 101.771 116.034 100.825 116.948 C 99.88 117.86 99.13 118.936 98.576 120.175 C 98.022 121.413 97.744 122.766 97.744 124.234 Z M 87.72 124.234 C 87.72 121.495 88.226 118.944 89.236 116.581 C 90.247 114.217 91.649 112.155 93.441 110.395 C 95.235 108.634 97.378 107.257 99.872 106.263 C 102.366 105.268 105.112 104.771 108.111 104.771 C 111.078 104.771 113.816 105.268 116.326 106.263 C 118.837 107.257 120.997 108.634 122.806 110.395 C 124.616 112.155 126.025 114.217 127.035 116.581 C 128.046 118.944 128.551 121.495 128.551 124.234 C 128.551 126.972 128.046 129.523 127.035 131.887 C 126.025 134.25 124.616 136.312 122.806 138.072 C 120.997 139.832 118.837 141.21 116.326 142.204 C 113.816 143.198 111.078 143.696 108.111 143.696 C 105.112 143.696 102.366 143.198 99.872 142.204 C 97.378 141.21 95.235 139.832 93.441 138.072 C 91.649 136.312 90.247 134.25 89.236 131.887 C 88.226 129.523 87.72 126.972 87.72 124.234 Z M 147.689 135.236 L 149.792 135.236 C 152.204 135.236 153.932 134.926 154.975 134.307 C 156.019 133.687 156.54 132.693 156.54 131.324 C 156.54 129.954 156.019 128.96 154.975 128.341 C 153.932 127.721 152.204 127.412 149.792 127.412 L 147.689 127.412 L 147.689 135.236 Z M 147.689 120.273 L 149.45 120.273 C 152.449 120.273 153.948 119.083 153.948 116.703 C 153.948 114.323 152.449 113.133 149.45 113.133 L 147.689 113.133 L 147.689 120.273 Z M 138.105 105.798 L 152.384 105.798 C 155.774 105.798 158.35 106.613 160.11 108.243 C 161.87 109.873 162.75 112.22 162.75 115.285 C 162.75 117.143 162.416 118.683 161.748 119.906 C 161.08 121.128 160.061 122.163 158.692 123.011 C 160.061 123.271 161.226 123.671 162.188 124.209 C 163.15 124.747 163.933 125.407 164.535 126.19 C 165.139 126.972 165.571 127.852 165.831 128.83 C 166.092 129.808 166.222 130.851 166.222 131.96 C 166.222 133.688 165.921 135.22 165.318 136.556 C 164.715 137.892 163.867 139.017 162.775 139.931 C 161.683 140.843 160.355 141.528 158.789 141.984 C 157.225 142.44 155.464 142.669 153.508 142.669 L 138.105 142.669 L 138.105 105.798 Z M 194.943 128.977 L 190.64 116.703 L 186.337 128.977 L 194.943 128.977 Z M 197.486 136.263 L 183.794 136.263 L 181.594 142.669 L 171.374 142.669 L 185.408 105.798 L 195.872 105.798 L 209.907 142.669 L 199.687 142.669 L 197.486 136.263 Z" style="fill: rgb(43, 88, 118);"/><path d="M 244.157 118.121 C 241.941 115.415 239.202 114.062 235.942 114.062 C 234.508 114.062 233.179 114.323 231.956 114.845 C 230.734 115.366 229.683 116.075 228.802 116.972 C 227.922 117.868 227.23 118.936 226.724 120.175 C 226.219 121.413 225.966 122.75 225.966 124.185 C 225.966 125.651 226.219 127.004 226.724 128.243 C 227.23 129.482 227.931 130.558 228.827 131.471 C 229.723 132.383 230.775 133.1 231.981 133.622 C 233.187 134.144 234.491 134.405 235.893 134.405 C 238.957 134.405 241.712 133.101 244.157 130.493 L 244.157 141.838 L 243.179 142.18 C 241.712 142.701 240.343 143.084 239.071 143.329 C 237.8 143.573 236.545 143.696 235.306 143.696 C 232.764 143.696 230.327 143.215 227.995 142.253 C 225.665 141.291 223.611 139.939 221.834 138.195 C 220.058 136.45 218.631 134.38 217.555 131.984 C 216.48 129.588 215.942 126.972 215.942 124.136 C 215.942 121.3 216.472 118.7 217.531 116.336 C 218.591 113.972 220.009 111.935 221.785 110.224 C 223.562 108.512 225.624 107.176 227.971 106.214 C 230.319 105.252 232.78 104.771 235.355 104.771 C 236.822 104.771 238.264 104.926 239.682 105.236 C 241.101 105.546 242.593 106.027 244.157 106.679 L 244.157 118.121 Z M 263.292 122.278 L 265.102 122.278 C 266.993 122.278 268.444 121.886 269.454 121.104 C 270.465 120.321 270.97 119.196 270.97 117.73 C 270.97 116.262 270.465 115.138 269.454 114.356 C 268.444 113.573 266.993 113.182 265.102 113.182 L 263.292 113.182 L 263.292 122.278 Z M 284.368 142.669 L 272.437 142.669 L 263.292 128.488 L 263.292 142.669 L 253.708 142.669 L 253.708 105.798 L 268.622 105.798 C 270.676 105.798 272.469 106.099 274.001 106.703 C 275.534 107.306 276.797 108.129 277.791 109.172 C 278.786 110.215 279.536 111.421 280.041 112.791 C 280.546 114.16 280.798 115.627 280.798 117.192 C 280.798 119.995 280.122 122.269 278.769 124.014 C 277.417 125.758 275.42 126.939 272.779 127.559 L 284.368 142.669 Z M 311.915 128.977 L 307.611 116.703 L 303.308 128.977 L 311.915 128.977 Z M 314.457 136.263 L 300.765 136.263 L 298.565 142.669 L 288.345 142.669 L 302.379 105.798 L 312.844 105.798 L 326.878 142.669 L 316.658 142.669 L 314.457 136.263 Z M 355.7 113.916 L 344.16 113.916 L 344.16 120.077 L 354.673 120.077 L 354.673 128.195 L 344.16 128.195 L 344.16 142.669 L 334.575 142.669 L 334.575 105.798 L 355.7 105.798 L 355.7 113.916 Z M 378.894 113.916 L 378.894 142.669 L 369.309 142.669 L 369.309 113.916 L 361.436 113.916 L 361.436 105.798 L 386.766 105.798 L 386.766 113.916 L 378.894 113.916 Z" style="fill: rgb(255, 107, 107);"/></g></g><path/><path/></svg>